<?xml version="1.0" encoding="UTF-8" standalone="no"?>
<svg
   xmlns:dc="http://purl.org/dc/elements/1.1/"
   xmlns:cc="http://creativecommons.org/ns#"
   xmlns:rdf="http://www.w3.org/1999/02/22-rdf-syntax-ns#"
   xmlns:svg="http://www.w3.org/2000/svg"
   xmlns="http://www.w3.org/2000/svg"
   height="78.048378"
   width="105.97875"
   id="svg2"
   version="1.1">
  <metadata
     id="metadata21">
    <rdf:RDF>
      <cc:Work
         rdf:about="">
        <dc:format>image/svg+xml</dc:format>
        <dc:type
           rdf:resource="http://purl.org/dc/dcmitype/StillImage" />
        <dc:title></dc:title>
      </cc:Work>
    </rdf:RDF>
  </metadata>
  <defs
     id="defs19">
    <clipPath
       clipPathUnits="userSpaceOnUse"
       id="clipPath5605">
      <path
         d="m 0,1965.526 1280,0 L 1280,0 0,0 0,1965.526 Z"
         id="path5607" />
    </clipPath>
    <clipPath
       clipPathUnits="userSpaceOnUse"
       id="clipPath5647">
      <path
         d="m 0,1965.526 1280,0 L 1280,0 0,0 0,1965.526 Z"
         id="path5649" />
    </clipPath>
    <clipPath
       clipPathUnits="userSpaceOnUse"
       id="clipPath5665">
      <path
         d="m 0,1965.526 1280,0 L 1280,0 0,0 0,1965.526 Z"
         id="path5667" />
    </clipPath>
    <clipPath
       clipPathUnits="userSpaceOnUse"
       id="clipPath5679">
      <path
         d="m 0,1965.526 1280,0 L 1280,0 0,0 0,1965.526 Z"
         id="path5681" />
    </clipPath>
    <clipPath
       clipPathUnits="userSpaceOnUse"
       id="clipPath5825">
      <path
         d="m 0,1965.526 1280,0 L 1280,0 0,0 0,1965.526 Z"
         id="path5827" />
    </clipPath>
    <clipPath
       clipPathUnits="userSpaceOnUse"
       id="clipPath5857">
      <path
         d="m 0,1965.526 1280,0 L 1280,0 0,0 0,1965.526 Z"
         id="path5859" />
    </clipPath>
    <clipPath
       clipPathUnits="userSpaceOnUse"
       id="clipPath5905">
      <path
         d="m 0,1965.526 1280,0 L 1280,0 0,0 0,1965.526 Z"
         id="path5907" />
    </clipPath>
    <clipPath
       clipPathUnits="userSpaceOnUse"
       id="clipPath5925">
      <path
         d="m 0,1965.526 1280,0 L 1280,0 0,0 0,1965.526 Z"
         id="path5927" />
    </clipPath>
    <clipPath
       clipPathUnits="userSpaceOnUse"
       id="clipPath5957">
      <path
         d="m 0,1965.526 1280,0 L 1280,0 0,0 0,1965.526 Z"
         id="path5959" />
    </clipPath>
    <clipPath
       clipPathUnits="userSpaceOnUse"
       id="clipPath5973">
      <path
         d="m 0,1965.526 1280,0 L 1280,0 0,0 0,1965.526 Z"
         id="path5975" />
    </clipPath>
    <clipPath
       clipPathUnits="userSpaceOnUse"
       id="clipPath6031">
      <path
         d="m 0,1965.526 1280,0 L 1280,0 0,0 0,1965.526 Z"
         id="path6033" />
    </clipPath>
    <clipPath
       clipPathUnits="userSpaceOnUse"
       id="clipPath6085">
      <path
         d="m 0,1965.526 1280,0 L 1280,0 0,0 0,1965.526 Z"
         id="path6087" />
    </clipPath>
    <clipPath
       clipPathUnits="userSpaceOnUse"
       id="clipPath6145">
      <path
         d="m 0,1965.526 1280,0 L 1280,0 0,0 0,1965.526 Z"
         id="path6147" />
    </clipPath>
    <clipPath
       clipPathUnits="userSpaceOnUse"
       id="clipPath6205">
      <path
         d="m 0,1965.526 1280,0 L 1280,0 0,0 0,1965.526 Z"
         id="path6207" />
    </clipPath>
    <clipPath
       clipPathUnits="userSpaceOnUse"
       id="clipPath6265">
      <path
         d="m 0,1965.526 1280,0 L 1280,0 0,0 0,1965.526 Z"
         id="path6267" />
    </clipPath>
    <clipPath
       clipPathUnits="userSpaceOnUse"
       id="clipPath6283">
      <path
         d="m 0,1965.526 1280,0 L 1280,0 0,0 0,1965.526 Z"
         id="path6285" />
    </clipPath>
    <clipPath
       clipPathUnits="userSpaceOnUse"
       id="clipPath6331">
      <path
         d="m 0,1965.526 1280,0 L 1280,0 0,0 0,1965.526 Z"
         id="path6333" />
    </clipPath>
    <clipPath
       clipPathUnits="userSpaceOnUse"
       id="clipPath6349">
      <path
         d="m 0,1965.526 1280,0 L 1280,0 0,0 0,1965.526 Z"
         id="path6351" />
    </clipPath>
    <clipPath
       clipPathUnits="userSpaceOnUse"
       id="clipPath6397">
      <path
         d="m 0,1965.526 1280,0 L 1280,0 0,0 0,1965.526 Z"
         id="path6399" />
    </clipPath>
    <clipPath
       clipPathUnits="userSpaceOnUse"
       id="clipPath6415">
      <path
         d="m 0,1965.526 1280,0 L 1280,0 0,0 0,1965.526 Z"
         id="path6417" />
    </clipPath>
    <clipPath
       clipPathUnits="userSpaceOnUse"
       id="clipPath6463">
      <path
         d="m 0,1965.526 1280,0 L 1280,0 0,0 0,1965.526 Z"
         id="path6465" />
    </clipPath>
    <clipPath
       clipPathUnits="userSpaceOnUse"
       id="clipPath6481">
      <path
         d="m 0,1965.526 1280,0 L 1280,0 0,0 0,1965.526 Z"
         id="path6483" />
    </clipPath>
    <clipPath
       clipPathUnits="userSpaceOnUse"
       id="clipPath6497">
      <path
         d="m 0,1965.526 1280,0 L 1280,0 0,0 0,1965.526 Z"
         id="path6499" />
    </clipPath>
    <clipPath
       clipPathUnits="userSpaceOnUse"
       id="clipPath6555">
      <path
         d="m 0,1965.526 1280,0 L 1280,0 0,0 0,1965.526 Z"
         id="path6557" />
    </clipPath>
    <clipPath
       clipPathUnits="userSpaceOnUse"
       id="clipPath6615">
      <path
         d="m 0,1965.526 1280,0 L 1280,0 0,0 0,1965.526 Z"
         id="path6617" />
    </clipPath>
    <clipPath
       clipPathUnits="userSpaceOnUse"
       id="clipPath6675">
      <path
         d="m 0,1965.526 1280,0 L 1280,0 0,0 0,1965.526 Z"
         id="path6677" />
    </clipPath>
    <clipPath
       clipPathUnits="userSpaceOnUse"
       id="clipPath6735">
      <path
         d="m 0,1965.526 1280,0 L 1280,0 0,0 0,1965.526 Z"
         id="path6737" />
    </clipPath>
  </defs>
  <filter
     id="duotone_grrr">
    <feColorMatrix
       id="feColorMatrix5"
       values="1 0 0 0 0 1 0 0 0 0 1 0 0 0 0 0 0 0 1 0"
       type="matrix" />
    <feComponentTransfer
       style="color-interpolation-filters:sRGB"
       id="feComponentTransfer7">
      <feFuncR
         id="feFuncR9"
         type="table"
         tableValues="0.067 1.000" />
      <feFuncG
         id="feFuncG11"
         type="table"
         tableValues="0.067 0.949" />
      <feFuncB
         id="feFuncB13"
         type="table"
         tableValues="0.067 0.000" />
      <feFuncA
         id="feFuncA15"
         type="table"
         tableValues="0 1" />
    </feComponentTransfer>
  </filter>
  <g
     transform="matrix(1.25,0,0,-1.25,-24.631,2439.9459)"
     id="g5601">
    <g
       clip-path="url(#clipPath5605)"
       id="g5603">
      <g
         transform="translate(58.8926,1937.1006)"
         id="g5609">
        <path
           id="path5611"
           style="fill:#1d1d1b;fill-opacity:1;fill-rule:nonzero;stroke:none"
           d="m 0,0 7.957,0 c 2.558,0 4.344,2.477 4.344,5.399 0,2.963 -2.192,5.358 -4.588,5.358 L 0,10.757 0,0 Z m -4.546,-14.045 0,28.822 12.544,0 c 5.196,0 8.931,-4.75 8.931,-9.378 0,-3.856 -2.233,-7.389 -5.644,-8.484 l 6.861,-10.96 -5.156,0 -6.332,10.026 -6.658,0 0,-10.026 -4.546,0 z" />
      </g>
      <g
         transform="translate(86.3418,1903.563)"
         id="g5613">
        <path
           id="path5615"
           style="fill:#1d1d1b;fill-opacity:1;fill-rule:nonzero;stroke:none"
           d="m 0,0 7.957,0 c 2.557,0 4.343,2.477 4.343,5.399 0,2.964 -2.192,5.359 -4.587,5.359 L 0,10.758 0,0 Z m -4.547,-14.045 0,28.822 12.544,0 c 5.196,0 8.931,-4.751 8.931,-9.378 0,-3.856 -2.233,-7.388 -5.643,-8.484 l 6.861,-10.96 -5.156,0 -6.332,10.027 -6.658,0 0,-10.027 -4.547,0 z" />
      </g>
      <g
         transform="translate(59.0015,1903.563)"
         id="g5617">
        <path
           id="path5619"
           style="fill:#1d1d1b;fill-opacity:1;fill-rule:nonzero;stroke:none"
           d="m 0,0 7.955,0 c 2.558,0 4.344,2.477 4.344,5.399 0,2.964 -2.191,5.359 -4.587,5.359 L 0,10.758 0,0 Z m -4.546,-14.045 0,28.822 12.542,0 c 5.198,0 8.931,-4.751 8.931,-9.378 0,-3.856 -2.231,-7.388 -5.641,-8.484 l 6.859,-10.96 -5.156,0 -6.332,10.027 -6.657,0 0,-10.027 -4.546,0 z" />
      </g>
      <g
         transform="translate(33.4258,1922.9937)"
         id="g5621">
        <path
           id="path5623"
           style="fill:#1d1d1b;fill-opacity:1;fill-rule:nonzero;stroke:none"
           d="m 0,0 c -7.565,0 -13.721,6.496 -13.721,14.48 0,7.987 6.156,14.483 13.721,14.483 3.604,0 7.01,-1.463 9.585,-4.118 L 6.577,21.925 C 4.797,23.761 2.461,24.771 0,24.771 c -5.254,0 -9.529,-4.616 -9.529,-10.291 0,-5.672 4.275,-10.289 9.529,-10.289 5.254,0 9.529,4.617 9.529,10.289 l 4.194,0 C 13.723,6.496 7.566,0 0,0" />
      </g>
      <g
         transform="translate(47.8691,1931.2437)"
         id="g5625">
        <path
           id="path5627"
           style="fill:#1d1d1b;fill-opacity:1;fill-rule:nonzero;stroke:none"
           d="M 0,0 -2.596,4.538 -7.755,2.011 -9.457,5.488 -1.039,9.609 3.358,1.921 0,0 Z" />
      </g>
    </g>
  </g>
</svg>
